<?xml version="1.0" encoding="UTF-8"?>
<svg version="1.1" xmlns="http://www.w3.org/2000/svg" width="800" height="688" viewBox="0 0 400 344">
  <path d="M0 0 C0 0.66 0 1.32 0 2 C0.73863281 2.268125 1.47726563 2.53625 2.23828125 2.8125 C4.92456504 3.96756403 6.86633407 5.2411566 9.1875 7 C14.00117006 10.45076347 19.01640067 13.37897955 24.1875 16.25 C24.94764404 16.67410156 25.70778809 17.09820312 26.4909668 17.53515625 C32.87308805 21.04173982 39.37259103 23.80105466 46.1875 26.375 C50.50142007 28.01675472 54.76060223 29.73759367 59 31.5625 C75.26015222 38.3587355 92.83424186 42.23631859 110.1640625 45.15625 C111.21311768 45.33575195 112.26217285 45.51525391 113.34301758 45.70019531 C115.89485906 46.13640753 118.4471681 46.56962893 121 47 C121.04707031 55.41704609 121.08223745 63.83403403 121.10362434 72.25118065 C121.11390704 76.16278216 121.12776814 80.07429142 121.15087891 83.98583984 C121.33390698 115.83602376 119.79989391 146.98426026 112 178 C111.70899414 179.16885742 111.70899414 179.16885742 111.41210938 180.36132812 C98.02921487 232.66083016 60.19523328 270.86152049 15.0625 297.8125 C13.81532335 298.54594574 12.5679367 299.27903457 11.3203125 300.01171875 C8.61359996 301.63256191 6.03150003 303.33484409 3.4375 305.125 C0 307 0 307 -3.125 307 C-6.24960821 305.91317975 -9.09951096 304.58836304 -12 303 C-12 302.34 -12 301.68 -12 301 C-13.28970703 300.60941406 -13.28970703 300.60941406 -14.60546875 300.2109375 C-32.17504328 293.94331022 -48.24995661 280.29888497 -62 268 C-62.56235352 267.49936035 -63.12470703 266.9987207 -63.70410156 266.48291016 C-70.2175016 260.6581113 -76.42785082 254.74722826 -82 248 C-83.11568359 246.75089844 -83.11568359 246.75089844 -84.25390625 245.4765625 C-91.11907093 237.63372961 -96.52762805 229.18827068 -101.73779297 220.17382812 C-102.86594843 218.23086947 -104.02422958 216.31024552 -105.19140625 214.390625 C-115.81718486 196.00865183 -121.08298853 173.86884168 -124.0625 153 C-124.22298828 151.93394531 -124.38347656 150.86789063 -124.54882812 149.76953125 C-125.07214902 146.1840475 -125.54056125 142.59421768 -126 139 C-126.09140259 138.35035278 -126.18280518 137.70070557 -126.27697754 137.03137207 C-128.70174361 119.52957489 -128.23365528 101.87533065 -128.1373291 84.25024414 C-128.116564 80.03924596 -128.10767105 75.82822253 -128.09765625 71.6171875 C-128.07645295 63.41139058 -128.04249419 55.20571422 -128 47 C-127.32500961 46.89257477 -126.65001923 46.78514954 -125.95457458 46.67446899 C-122.84256242 46.1761652 -119.73184763 45.67015959 -116.62109375 45.1640625 C-115.55967163 44.99527588 -114.49824951 44.82648926 -113.40466309 44.65258789 C-105.41062076 43.34399825 -97.7199714 41.49217937 -89.97265625 39.1484375 C-87.28630497 38.33882954 -84.62169892 37.70240145 -81.87109375 37.15234375 C-75.39751299 35.74868484 -69.21147195 33.45735789 -63 31.1875 C-62.01922989 30.82977005 -62.01922989 30.82977005 -61.01864624 30.46481323 C-42.46894778 23.63841391 -25.2065346 14.54774035 -8.74536133 3.60571289 C-8.02759521 3.13125732 -7.3098291 2.65680176 -6.5703125 2.16796875 C-5.94914551 1.74797607 -5.32797852 1.3279834 -4.68798828 0.89526367 C-3 0 -3 0 0 0 Z " fill="#08152A" transform="translate(195,23)"/>
  <path d="M0 0 C13.09488617 -0.2477876 25.76266937 0.34782304 38.75 2 C40.34492022 2.19379663 41.93997276 2.38650745 43.53515625 2.578125 C47.35839902 3.03969246 51.17959556 3.51552375 55 4 C54.44058114 7.73824219 53.71648744 11.20647178 52.46875 14.7734375 C52.15719971 15.66861084 51.84564941 16.56378418 51.5246582 17.48608398 C51.01745239 18.91609741 51.01745239 18.91609741 50.5 20.375 C50.14832764 21.37797119 49.79665527 22.38094238 49.43432617 23.41430664 C46.82867153 30.79460709 44.08832359 38.11984462 41.3125 45.4375 C38.70504108 52.33396731 36.13826939 59.2318111 33.875 66.25 C33.48054687 67.47203125 33.08609375 68.6940625 32.6796875 69.953125 C31.80298709 73.6228134 31.80298709 73.6228134 33 77 C35.29500981 78.78862472 35.29500981 78.78862472 38.0625 80.25 C38.98160156 80.77078125 39.90070313 81.2915625 40.84765625 81.828125 C41.55792969 82.21484375 42.26820313 82.6015625 43 83 C42.01 83.33 41.02 83.66 40 84 C40 84.66 40 85.32 40 86 C40.62648437 86.13277344 41.25296875 86.26554687 41.8984375 86.40234375 C42.71570313 86.57894531 43.53296875 86.75554687 44.375 86.9375 C45.18710938 87.11152344 45.99921875 87.28554687 46.8359375 87.46484375 C49 88 49 88 51 89 C58.96421414 89.51767392 66.34165468 89.52303105 73.8515625 86.55859375 C76.52007209 85.86478126 78.36334626 86.30151804 81 87 C81.66 85.35 82.32 83.7 83 82 C83.66 82 84.32 82 85 82 C85.39480778 83.53671335 85.76490538 85.07978384 86.125 86.625 C86.43824219 87.91277344 86.43824219 87.91277344 86.7578125 89.2265625 C87.77725166 100.90078513 74.87152945 115.46794197 68 124 C67.5673584 124.54092285 67.1347168 125.0818457 66.68896484 125.63916016 C48.93201923 147.66539645 26.80032472 163.83701173 2.95800781 178.75537109 C1.37403285 179.76224196 -0.16816311 180.83464407 -1.6953125 181.92578125 C-4.90848697 183.42344732 -6.62440946 182.98097745 -10 182 C-47.44659868 164.29532575 -84.79390311 131.02988595 -102 93 C-102.7620409 90.67960259 -103.39149581 88.36774402 -104 86 C-103.01 86 -102.02 86 -101 86 C-100.855625 85.113125 -100.71125 84.22625 -100.5625 83.3125 C-100.23211434 81.36689558 -99.87069781 79.42532359 -99.4375 77.5 C-98.80085846 73.86204836 -98.31705217 70.36589566 -100 67 C-99.01 66.01 -99.01 66.01 -98 65 C-97.34 65 -96.68 65 -96 65 C-93.78252188 62.69723426 -93.03239994 61.47519908 -92.8125 58.25 C-92.874375 57.5075 -92.93625 56.765 -93 56 C-94.65 56.99 -96.3 57.98 -98 59 C-96.36363636 53.46153846 -96.36363636 53.46153846 -94.375 50.9375 C-92.61564184 48.45840442 -92.77060372 46.98215158 -93 44 C-93 43.01 -93 42.02 -93 41 C-92.01 40.505 -92.01 40.505 -91 40 C-90.01 41.65 -89.02 43.3 -88 45 C-87.67 43.35 -87.34 41.7 -87 40 C-86.34 40 -85.68 40 -85 40 C-84.86408447 39.42926758 -84.72816895 38.85853516 -84.58813477 38.27050781 C-84.00832034 36.03212085 -83.32563399 33.8635906 -82.58984375 31.671875 C-82.32236328 30.87265625 -82.05488281 30.0734375 -81.77929688 29.25 C-81.50150391 28.425 -81.22371094 27.6 -80.9375 26.75 C-80.65583984 25.90953125 -80.37417969 25.0690625 -80.08398438 24.203125 C-79.39067825 22.13495758 -78.69597285 20.06727124 -78 18 C-77.34 18.33 -76.68 18.66 -76 19 C-78.06136289 25.06541362 -80.12455692 31.13020219 -82.18896484 37.19458008 C-82.88957202 39.25335924 -83.58977537 41.31227587 -84.28955078 43.37133789 C-85.30131992 46.34819073 -86.31458919 49.32452951 -87.328125 52.30078125 C-87.78931732 53.65928947 -87.78931732 53.65928947 -88.25982666 55.04524231 C-88.55983582 55.92532455 -88.85984497 56.8054068 -89.16894531 57.7121582 C-89.46047485 58.57418854 -89.75200439 59.43621887 -90.05236816 60.32437134 C-90.72435231 62.2217116 -91.44133158 64.10338559 -92.18884277 65.97225952 C-92.76583923 67.43074814 -92.76583923 67.43074814 -93.35449219 68.91870117 C-93.71581238 69.79668869 -94.07713257 70.67467621 -94.44940186 71.57926941 C-95.21137177 73.97899823 -95.21137177 73.97899823 -94.29815674 76.18476868 C-91.26241272 80.4296934 -85.52701287 82.61557118 -80.5546875 83.6796875 C-67.44669259 85.32319756 -55.81745848 84.1861848 -45 76 C-45.26266695 74.66503388 -45.53572653 73.33211295 -45.8125 72 C-45.96332031 71.2575 -46.11414063 70.515 -46.26953125 69.75 C-47.05754247 66.78336954 -48.09127556 63.99237061 -49.19018555 61.12939453 C-50.5354769 57.5919718 -51.75958725 54.01276308 -53 50.4375 C-55.26679738 43.91464889 -57.56740813 37.40496498 -59.90234375 30.90625 C-60.66162082 28.78736958 -61.42056501 26.66837017 -62.17944336 24.54934692 C-62.68395023 23.14385658 -63.1901301 21.73896561 -63.69799805 20.33468628 C-64.41619645 18.34831958 -65.12855709 16.35994399 -65.83984375 14.37109375 C-66.25613037 13.21536865 -66.67241699 12.05964355 -67.10131836 10.86889648 C-68 8 -68 8 -68 5 C-61.57780609 3.40579243 -55.54157036 2.60675361 -48.9375 2.375 C-48.00663574 2.33705322 -47.07577148 2.29910645 -46.11669922 2.26000977 C-35.08132849 1.85600856 -24.0406823 1.90549851 -13 2 C-12.97489873 7.26122711 -12.95695448 12.52241781 -12.94506836 17.78369141 C-12.94010258 19.56592416 -12.93332772 21.34815299 -12.92456055 23.13037109 C-12.87728358 33.0029139 -13.05015995 42.76590173 -13.75268555 52.61865234 C-14.09469542 58.01343689 -14.16274766 63.41249892 -14.24609375 68.81640625 C-14.26274582 69.85256073 -14.27939789 70.88871521 -14.29655457 71.95626831 C-14.36313905 76.25178383 -14.42533595 80.54729257 -14.47680664 84.84301758 C-14.5165567 88.02183204 -14.56800697 91.20029037 -14.62109375 94.37890625 C-14.6295079 95.34252579 -14.63792206 96.30614532 -14.64659119 97.29896545 C-14.74312089 102.57048048 -15.28130769 107.00723967 -17 112 C-18.91666667 112.47916667 -20.83333333 112.95833333 -22.75 113.4375 C-23.81734375 113.70433594 -24.8846875 113.97117187 -25.984375 114.24609375 C-27.78645833 114.69661458 -29.58854167 115.14713542 -31.390625 115.59765625 C-31.92171875 115.73042969 -32.4528125 115.86320312 -33 116 C-32.979375 116.804375 -32.95875 117.60875 -32.9375 118.4375 C-33 121 -33 121 -34 122 C-36.33297433 122.04092937 -38.66705225 122.04241723 -41 122 C-42.79493901 125.58987802 -44 128.97353778 -44 133 C-41.16605613 134.41697193 -38.79126262 134.11945929 -35.62255859 134.11352539 C-34.64188667 134.11374443 -34.64188667 134.11374443 -33.6414032 134.1139679 C-31.47704773 134.11327036 -29.31277796 134.1054854 -27.1484375 134.09765625 C-25.64913988 134.09579151 -24.14984166 134.09436787 -22.65054321 134.09336853 C-18.70168378 134.08954779 -14.75286104 134.07972128 -10.80401611 134.06866455 C-6.77559913 134.05844091 -2.74717622 134.05386887 1.28125 134.04882812 C9.18751685 134.03809862 17.09375386 134.0210275 25 134 C25 135.32 25 136.64 25 138 C26.32 137.67 27.64 137.34 29 137 C29 136.01 29 135.02 29 134 C29.66 133.67 30.32 133.34 31 133 C30.41825155 127.6913151 30.41825155 127.6913151 28 123 C26.03638136 122.42251197 26.03638136 122.42251197 23.875 122.3125 C22.59625 122.209375 21.3175 122.10625 20 122 C20.33 120.35 20.66 118.7 21 117 C17.7192143 115.79971255 14.86511533 114.98604641 11.375 114.625 C7.51858202 113.91084852 6.31134173 113.11142155 4 110 C2.78345295 106.44764207 2.82734404 102.92872092 2.75390625 99.19921875 C2.72083955 97.81314778 2.68763103 96.42708019 2.65429688 95.04101562 C2.60796365 92.8988843 2.56381305 90.7567493 2.52319336 88.61450195 C2.34674196 79.7084608 1.83857634 70.91369612 0.97265625 62.046875 C-0.24667184 49.21260056 -0.22480069 36.44337942 -0.125 23.5625 C-0.11493092 21.25846752 -0.10581214 18.95443068 -0.09765625 16.65039062 C-0.07599807 11.10016258 -0.04284368 5.55010295 0 0 Z " fill="#09162A" transform="translate(199,134)"/>
  <path d="M0 0 C-1.28197266 1.26457031 -1.28197266 1.26457031 -2.58984375 2.5546875 C-3.70586047 3.66132593 -4.82173872 4.76810402 -5.9375 5.875 C-6.50146484 6.43058594 -7.06542969 6.98617187 -7.64648438 7.55859375 C-10.69860028 10.4921571 -10.69860028 10.4921571 -13 14 C-6.07 14.495 -6.07 14.495 1 15 C1 9.72 1 4.44 1 -1 C5.06655581 -0.63085877 9.12597825 -0.23095982 13.1875 0.1875 C14.91323242 0.33928711 14.91323242 0.33928711 16.67382812 0.49414062 C25.23396942 1.41218476 25.23396942 1.41218476 29.0390625 4.33203125 C29.68617188 5.21246094 30.33328125 6.09289062 31 7 C31.71542969 7.7528125 32.43085938 8.505625 33.16796875 9.28125 C33.83441406 10.0134375 34.50085938 10.745625 35.1875 11.5 C35.86167969 12.2321875 36.53585938 12.964375 37.23046875 13.71875 C40.59774165 18.05978173 40.59774165 18.05978173 41 21 C39.36287735 24.24124711 37.12872142 26.97868037 34.875 29.8125 C34.23643066 30.64475098 33.59786133 31.47700195 32.93994141 32.33447266 C31.6192219 34.054974 30.29149515 35.77011762 28.95703125 37.47998047 C26.03981253 41.23640907 23.21190275 45.05782274 20.375 48.875 C18.99594933 50.71978471 17.61355535 52.56139518 16.21777344 54.39355469 C15.07778389 55.89739014 13.96365661 57.42073258 12.8515625 58.9453125 C12.24054688 59.62335938 11.62953125 60.30140625 11 61 C10.01 61 9.02 61 8 61 C7.67 60.01 7.34 59.02 7 58 C6.67 59.32 6.34 60.64 6 62 C6.63164062 62.03963867 7.26328125 62.07927734 7.9140625 62.12011719 C44.520824 64.50694133 44.520824 64.50694133 58 69 C60.06145107 69.068991 62.12501401 69.08467727 64.1875 69.0625 C65.27417969 69.05347656 66.36085938 69.04445313 67.48046875 69.03515625 C68.31191406 69.02355469 69.14335937 69.01195312 70 69 C70 67.68 70 66.36 70 65 C71.32 65 72.64 65 74 65 C74.4375 67.1875 74.4375 67.1875 74 70 C71.86004673 71.98441782 69.49824035 73.5023304 67 75 C67.38671875 76.00417969 67.7734375 77.00835937 68.171875 78.04296875 C68.69813326 79.42439668 69.22416228 80.80591194 69.75 82.1875 C70.00265625 82.84169922 70.2553125 83.49589844 70.515625 84.16992188 C72.10398272 88.35921537 73.49336057 92.57063246 74.77734375 96.86328125 C76.44555985 102.36999458 78.31271145 107.77884186 80.26953125 113.1875 C80.55708282 113.98605911 80.8446344 114.78461823 81.14089966 115.6073761 C82.33373281 118.91719357 83.52838283 122.22616734 84.7409668 125.52880859 C85.63670963 127.97364286 86.51682475 130.42364284 87.39453125 132.875 C87.67150345 133.6177417 87.94847565 134.3604834 88.23384094 135.12573242 C89.64337498 139.10440534 90.45364268 141.95168329 89 146 C87.6171875 147.51171875 87.6171875 147.51171875 85.875 148.6875 C85.31554687 149.08324219 84.75609375 149.47898438 84.1796875 149.88671875 C77.61816984 153.23803153 71.29316806 153.33691144 64.0625 153.3125 C63.11181641 153.32861328 62.16113281 153.34472656 61.18164062 153.36132812 C52.025935 153.36763805 45.76285813 151.25564377 39 145 C40.19950539 136.89734108 42.84457878 129.4307442 45.70983887 121.79415894 C47.06698927 118.17584249 48.39969002 114.54852546 49.734375 110.921875 C50.14227264 109.81597267 50.14227264 109.81597267 50.55841064 108.68772888 C53.39493934 100.97410747 56.08706599 93.21246558 58.75 85.4375 C58.96809326 84.80145844 59.18618652 84.16541687 59.41088867 83.51010132 C60.61119946 80.00807247 61.80761398 76.50473461 63 73 C61.22109375 72.92652344 61.22109375 72.92652344 59.40625 72.8515625 C50.33301277 72.44390379 41.44829123 71.74163801 32.44921875 70.50244141 C27.47696884 69.88892852 22.49871288 69.65940412 17.49609375 69.4375 C16.57856323 69.39431641 15.66103271 69.35113281 14.71569824 69.30664062 C12.47724444 69.20167894 10.2387012 69.09952005 8 69 C8.09417313 75.69983761 8.20165341 82.39937746 8.31738281 89.09887695 C8.3551085 91.36673429 8.39004648 93.63464012 8.421875 95.90258789 C8.60253703 108.63079243 9.06690758 121.2325758 10.2819519 133.90634155 C11.16261549 143.22333992 11.39526742 152.51009571 11.53173828 161.86254883 C11.56535577 163.97500541 11.61030572 166.08700005 11.65625 168.19921875 C11.68428711 170.02199341 11.68428711 170.02199341 11.71289062 171.8815918 C12.11237336 176.22053136 13.61120593 178.4168089 16 182 C18.32961443 182.35840222 20.66365343 182.68848712 23 183 C26.4375 184.5625 26.4375 184.5625 29 186 C29 187.32 29 188.64 29 190 C30.258125 190.04125 31.51625 190.0825 32.8125 190.125 C35.01953125 190.3984375 35.01953125 190.3984375 37 191 C39.58291674 194.55151051 40.60784959 197.62348295 40 202 C39.34 202.66 38.68 203.32 38 204 C37.67 204.99 37.34 205.98 37 207 C35.68 207 34.36 207 33 207 C33 205.68 33 204.36 33 203 C31.7509211 203.02545395 31.7509211 203.02545395 30.47660828 203.05142212 C22.63400378 203.20942496 14.79128878 203.35762376 6.94829082 203.49477577 C2.91600213 203.56563606 -1.11614154 203.6403032 -5.14819336 203.72363281 C-9.0383955 203.80389139 -12.92866124 203.87419913 -16.81917381 203.93757248 C-18.30441109 203.96352213 -19.78958988 203.99307404 -21.274683 204.02626419 C-23.35276059 204.0720951 -25.4306762 204.10518266 -27.5090332 204.13525391 C-28.69261917 204.15746002 -29.87620514 204.17966614 -31.09565735 204.20254517 C-34 204 -34 204 -37 202 C-36.34 198.7 -35.68 195.4 -35 192 C-30.545 191.01 -30.545 191.01 -26 190 C-26 188.02 -26 186.04 -26 184 C-25.319375 183.87625 -24.63875 183.7525 -23.9375 183.625 C-20.88268642 183.01853177 -20.88268642 183.01853177 -17.5 181.9375 C-14.44044344 181.11797592 -12.13065644 180.81026325 -9 181 C-7.99824349 175.11062482 -7.80281275 169.34589617 -7.71875 163.37890625 C-7.70034058 162.3613475 -7.68193115 161.34378876 -7.66296387 160.2953949 C-7.60452553 157.05115242 -7.55167019 153.80685684 -7.5 150.5625 C-7.30256355 138.34819575 -7.09428451 126.17623527 -6.24072266 113.98803711 C-5.74855907 105.834394 -5.62317955 97.66535293 -5.4375 89.5 C-5.39415998 87.69400368 -5.35054171 85.88801402 -5.30664062 84.08203125 C-5.20123187 79.72142392 -5.09954431 75.36074498 -5 71 C-11.38649835 71.26215634 -17.77277891 71.52920893 -24.15893555 71.79956055 C-26.32848546 71.89084029 -28.4980817 71.98102625 -30.66772461 72.07006836 C-33.7981446 72.19873545 -36.92837327 72.33142103 -40.05859375 72.46484375 C-41.49820717 72.52272316 -41.49820717 72.52272316 -42.96690369 72.58177185 C-48.68502091 72.83009998 -54.31834819 73.30537799 -60 74 C-59.67314209 74.92522461 -59.34628418 75.85044922 -59.00952148 76.80371094 C-57.48515919 81.11901524 -55.96123399 85.43447381 -54.4375 89.75 C-54.02575027 90.91613831 -54.02575027 90.91613831 -53.60568237 92.10583496 C-46.32114043 112.73936211 -46.32114043 112.73936211 -43.24975586 121.59277344 C-42.0181145 125.1356287 -40.76045483 128.66345183 -39.43359375 132.171875 C-39.1905249 132.8225293 -38.94745605 133.47318359 -38.69702148 134.14355469 C-38.05669863 135.84898901 -37.40394516 137.54974257 -36.75 139.25 C-35.96453872 142.13002471 -35.66614114 143.34368277 -37 146 C-39.0390625 147.6328125 -39.0390625 147.6328125 -41.625 149.125 C-42.46289062 149.62257812 -43.30078125 150.12015625 -44.1640625 150.6328125 C-53.68452329 155.22256633 -65.47019918 155.56992193 -75.625 152.75 C-80.15350078 151.12614366 -84.42257492 149.26631619 -87.25 145.20410156 C-88.2850546 142.16228094 -87.58783026 140.67473977 -86.5 137.671875 C-86.11376465 136.58028076 -85.7275293 135.48868652 -85.32958984 134.36401367 C-84.67144287 132.5750769 -84.67144287 132.5750769 -84 130.75 C-83.31814102 128.83833749 -82.63632125 126.92666072 -81.95565796 125.01457214 C-81.20065964 122.90011229 -80.43896534 120.78814044 -79.67675781 118.67626953 C-77.82247451 113.5233182 -76.01485384 108.35435551 -74.2109375 103.18359375 C-73.73361176 101.81544022 -73.73361176 101.81544022 -73.24664307 100.41964722 C-72.60720664 98.58639724 -71.96786293 96.75311492 -71.32861328 94.9197998 C-69.79366564 90.5218565 -68.25247197 86.12610678 -66.7109375 81.73046875 C-66.29912735 80.55598427 -66.29912735 80.55598427 -65.8789978 79.35777283 C-65.25275123 77.57181838 -64.62639009 75.78590411 -64 74 C-64.78375 73.71125 -65.5675 73.4225 -66.375 73.125 C-69 72 -69 72 -71 70 C-71.125 67.375 -71.125 67.375 -71 65 C-69.68 65 -68.36 65 -67 65 C-66.67 66.32 -66.34 67.64 -66 69 C-60.61596013 69.3281469 -55.73909323 69.07589911 -50.5 67.75 C-43.64296857 66.03574214 -36.73171606 64.90205312 -29.75 63.8125 C-28.63689453 63.63364258 -27.52378906 63.45478516 -26.37695312 63.27050781 C-20.17025909 62.31891366 -14.278228 61.8079445 -8 62 C-13.19586778 54.99520048 -18.48215907 48.0777233 -23.89379883 41.23852539 C-27.73506358 36.37121104 -31.44933513 31.41900981 -35.125 26.42578125 C-36.65541352 24.44580876 -38.17618421 22.70412788 -40 21 C-36.63528892 13.52286426 -31.22208755 5.07404102 -23.34570312 1.94580078 C-16.08494459 -0.02627222 -7.37467197 -2.24478749 0 0 Z " fill="#C7A25E" transform="translate(191,65)"/>
  <path d="M0 0 C2.47485352 1.61914062 2.47485352 1.61914062 5.06640625 3.65625 C10.74564696 7.92066899 16.61974713 11.2781799 22.9375 14.5 C24.57537476 15.33954224 24.57537476 15.33954224 26.24633789 16.19604492 C52.84806412 29.63175013 82.58002851 39.17770818 112 44 C112.07063736 52.53014194 112.12337106 61.06015449 112.15543652 69.59051991 C112.17085422 73.55483909 112.19163238 77.51895316 112.22631836 81.4831543 C112.39438422 101.23335599 111.79485705 120.40283262 109 140 C108.80344877 141.43920652 108.60691327 142.87841519 108.41040039 144.31762695 C107.95821415 147.46989304 107.46381891 150.60941394 106.9375 153.75 C106.77701172 154.76191406 106.61652344 155.77382812 106.45117188 156.81640625 C105.60453878 162.00500908 104.57641239 166.98350546 103 172 C102.34 172 101.68 172 101 172 C100.87044922 172.85658203 100.87044922 172.85658203 100.73828125 173.73046875 C95.7567872 202.47688856 77.076162 225.98944637 57 246 C56.42378906 246.61101562 55.84757813 247.22203125 55.25390625 247.8515625 C40.4953918 263.32584785 21.39145037 275.3320528 3 286 C2.08992188 286.58523438 1.17984375 287.17046875 0.2421875 287.7734375 C-2 289 -2 289 -4.625 288.5625 C-15.07515012 283.72446754 -24.58161765 277.50211302 -34.17089844 271.17431641 C-35.75013741 270.16041632 -37.37565154 269.21927308 -39.0078125 268.29296875 C-39.66523438 267.86628906 -40.32265625 267.43960937 -41 267 C-41 266.34 -41 265.68 -41 265 C-41.57492188 264.73316406 -42.14984375 264.46632813 -42.7421875 264.19140625 C-49.80711655 260.46337275 -55.76039081 254.52820152 -61.60546875 249.16796875 C-63.65153313 247.31549611 -65.74378694 245.56424241 -67.875 243.8125 C-87.22189359 226.79655745 -101.63509948 202.46644918 -109 178 C-109.43338238 176.63972476 -109.86963388 175.28036064 -110.30859375 173.921875 C-124.00174127 131.38270552 -122.34347312 87.19977225 -122 43 C-120.84242187 42.87882812 -119.68484375 42.75765625 -118.4921875 42.6328125 C-116.95308708 42.46388684 -115.41402663 42.29459668 -113.875 42.125 C-113.11445312 42.04636719 -112.35390625 41.96773437 -111.5703125 41.88671875 C-107.12816086 41.38889141 -103.22085327 40.54905582 -99 39 C-97.62145919 38.64187652 -96.23741289 38.30396252 -94.84765625 37.9921875 C-65.22308747 31.11059501 -30.73921345 19.70132019 -6.9375 0.046875 C-4.21420731 -1.42458154 -2.94092132 -0.86621467 0 0 Z " fill="#DCD6CD" transform="translate(196,33)"/>
  <path d="M0 0 C0 0.66 0 1.32 0 2 C0.73863281 2.268125 1.47726563 2.53625 2.23828125 2.8125 C4.92456504 3.96756403 6.86633407 5.2411566 9.1875 7 C14.00117006 10.45076347 19.01640067 13.37897955 24.1875 16.25 C24.94764404 16.67410156 25.70778809 17.09820312 26.4909668 17.53515625 C32.87308805 21.04173982 39.37259103 23.80105466 46.1875 26.375 C50.50142007 28.01675472 54.76060223 29.73759367 59 31.5625 C75.26015222 38.3587355 92.83424186 42.23631859 110.1640625 45.15625 C111.21311768 45.33575195 112.26217285 45.51525391 113.34301758 45.70019531 C115.89485906 46.13640753 118.4471681 46.56962893 121 47 C121.04646992 55.72791525 121.08194338 64.45578749 121.10362434 73.18379974 C121.1139727 77.23716115 121.12796382 81.29043752 121.15087891 85.34375 C121.17293225 89.26004363 121.18463547 93.17625578 121.18975449 97.09260559 C121.19343183 98.58202902 121.20061251 100.07144832 121.21146011 101.56083679 C121.31188082 115.92836454 121.31188082 115.92836454 119 123 C118.67 123 118.34 123 118 123 C118 113.43 118 103.86 118 94 C117.67 95.98 117.34 97.96 117 100 C116.67 100 116.34 100 116 100 C115.67 87.46 115.34 74.92 115 62 C114.67 79.82 114.34 97.64 114 116 C113.67 116 113.34 116 113 116 C113 95.54 113 75.08 113 54 C110.03 53.67 107.06 53.34 104 53 C78.28375905 48.42257542 52.35225648 39.6249396 29 28 C28.24944336 27.6302002 27.49888672 27.26040039 26.72558594 26.87939453 C17.79530692 22.44121145 9.57963324 17.5957774 1.63671875 11.5546875 C-0.77516216 9.76510055 -0.77516216 9.76510055 -2.93603516 10.26611328 C-5.07881957 11.02802598 -6.75564162 11.94840007 -8.66015625 13.1875 C-9.36164795 13.63448242 -10.06313965 14.08146484 -10.78588867 14.54199219 C-11.53717041 15.02313477 -12.28845215 15.50427734 -13.0625 16 C-21.68802763 21.39876855 -30.56128667 25.81313538 -39.82470703 29.99755859 C-41.79034125 30.90338285 -43.72332549 31.85121981 -45.65234375 32.83203125 C-62.49634981 41.22561357 -80.88436954 46.03011325 -99.1875 50.08984375 C-102.76732637 50.59279764 -102.76732637 50.59279764 -104 52 C-106.18292774 52.23481693 -108.37203174 52.41363323 -110.5625 52.5625 C-111.76003906 52.64628906 -112.95757812 52.73007813 -114.19140625 52.81640625 C-115.11824219 52.87699219 -116.04507813 52.93757813 -117 53 C-116.36578125 52.7215625 -115.7315625 52.443125 -115.078125 52.15625 C-112.27430443 50.59622953 -111.90243154 49.00810514 -111 46 C-111 45.34 -111 44.68 -111 44 C-110.13761719 43.84144531 -109.27523437 43.68289062 -108.38671875 43.51953125 C-72.55770547 36.6715361 -39.19883731 23.84866671 -8.74536133 3.60571289 C-8.02759521 3.13125732 -7.3098291 2.65680176 -6.5703125 2.16796875 C-5.94914551 1.74797607 -5.32797852 1.3279834 -4.68798828 0.89526367 C-3 0 -3 0 0 0 Z " fill="#B28F53" transform="translate(195,23)"/>
  <path d="M0 0 C0.66 0.33 1.32 0.66 2 1 C2.26287929 13.35358316 2.52379918 25.70720607 2.78230286 38.06088161 C2.90243054 43.79882752 3.02320179 49.53675829 3.14550781 55.2746582 C3.26378872 60.82488398 3.38029554 66.37514457 3.49563599 71.92543221 C3.53966707 74.02982951 3.58430877 76.13421414 3.62960815 78.23858452 C3.89297961 90.49457345 4.0646967 102.74106671 4 115 C4.95874023 115.05752441 5.91748047 115.11504883 6.90527344 115.17431641 C17.39285714 115.80357143 17.39285714 115.80357143 21 118 C21 118.66 21 119.32 21 120 C4.5 120 -12 120 -29 120 C-28.67 118.68 -28.34 117.36 -28 116 C-24.029365 115.32414723 -20.27741892 114.93908063 -16.24609375 114.96875 C-15.44743896 114.97326172 -14.64878418 114.97777344 -13.82592773 114.98242188 C-12.92209351 114.99112305 -12.92209351 114.99112305 -12 115 C-12.00785522 113.79899658 -12.00785522 113.79899658 -12.01586914 112.57373047 C-12.14351285 89.69803854 -11.70797508 66.86420589 -11 44 C-10.67 44 -10.34 44 -10 44 C-9.95512451 42.77369873 -9.91024902 41.54739746 -9.86401367 40.28393555 C-9.69387494 35.73788167 -9.5049449 31.19277035 -9.31030273 26.64770508 C-9.22866563 24.67981262 -9.15213852 22.71170129 -9.08081055 20.7434082 C-8.97744421 17.91544773 -8.85577198 15.08878156 -8.73046875 12.26171875 C-8.6880732 10.93970711 -8.6880732 10.93970711 -8.64482117 9.59098816 C-8.5850988 8.3600518 -8.5850988 8.3600518 -8.52416992 7.10424805 C-8.49530197 6.38254929 -8.46643402 5.66085052 -8.43669128 4.9172821 C-7.36896392 0.22945197 -4.37371275 -0.44858592 0 0 Z " fill="#C19953" transform="translate(197,134)"/>
  <path d="M0 0 C0.66 0 1.32 0 2 0 C7.34961646 14.70459681 12.57337347 29.44535481 17.63623047 44.25073242 C18.03213379 45.40677979 18.42803711 46.56282715 18.8359375 47.75390625 C19.3923291 49.38030029 19.3923291 49.38030029 19.95996094 51.03955078 C20.85261424 53.58046954 21.80140849 56.08489904 22.7890625 58.58984375 C24 62 24 62 24 66 C8.82 66 -6.36 66 -22 66 C-21.24888888 61.49333325 -20.40694467 57.90935218 -18.92578125 53.66796875 C-18.50820557 52.46487061 -18.09062988 51.26177246 -17.66040039 50.0222168 C-17.21124788 48.74392599 -16.76194501 47.465688 -16.3125 46.1875 C-15.85565482 44.87749374 -15.39919503 43.56735301 -14.94311523 42.25708008 C-13.63467218 38.50262674 -12.31771143 34.75121011 -11 31 C-10.36965352 29.19796499 -9.73942504 27.39588868 -9.109375 25.59375 C-7.0259874 19.65260941 -4.91423854 13.72613296 -2.68212891 7.83911133 C-1.72105378 5.24792345 -0.85412229 2.62806859 0 0 Z " fill="#0A172B" transform="translate(128,142)"/>
  <path d="M0 0 C2.84828933 2.42434384 3.77986296 4.65539182 4.90234375 8.19140625 C5.23556641 9.21943359 5.56878906 10.24746094 5.91210938 11.30664062 C6.25048828 12.38107422 6.58886719 13.45550781 6.9375 14.5625 C9.12427368 21.40933473 11.36001656 28.16336706 14.13354492 34.7980957 C15.01880654 37.04779266 15.71816182 39.29928319 16.375 41.625 C17.9270364 47.06146268 19.95421624 52.29671804 22.01904297 57.55517578 C23.16403873 60.51916165 24 62.79259129 24 66 C8.49 66 -7.02 66 -23 66 C-20.68412897 58.47341915 -18.38871557 51.02856772 -15.75 43.625 C-15.14415969 41.91158967 -14.53870756 40.19804204 -13.93359375 38.484375 C-13.62019043 37.59814453 -13.30678711 36.71191406 -12.98388672 35.79882812 C-11.94862979 32.85386897 -10.9276166 29.90427793 -9.91015625 26.953125 C-9.56049805 25.94040527 -9.21083984 24.92768555 -8.85058594 23.88427734 C-8.17894547 21.9372782 -7.50891527 19.98972251 -6.84082031 18.04150391 C-4.73532202 11.95207256 -2.44660338 5.96052236 0 0 Z " fill="#0A172B" transform="translate(255,142)"/>
  <path d="M0 0 C0.96566895 -0.00064453 1.93133789 -0.00128906 2.92626953 -0.00195312 C9.73963093 0.05213093 9.73963093 0.05213093 10.875 1.1875 C10.99114352 3.53340387 11.03902372 5.84811723 11.04296875 8.1953125 C11.049049 9.33656334 11.049049 9.33656334 11.05525208 10.50086975 C11.06497281 13.10478574 11.06460171 15.70856777 11.0625 18.3125 C11.0632251 19.21368561 11.0639502 20.11487122 11.06469727 21.04336548 C11.06198097 52.43121204 9.86196842 83.81844127 8.875 115.1875 C3.595 115.8475 -1.685 116.5075 -7.125 117.1875 C-7.455 118.1775 -7.785 119.1675 -8.125 120.1875 C8.375 120.1875 24.875 120.1875 41.875 120.1875 C41.545 119.5275 41.215 118.8675 40.875 118.1875 C38.17064573 117.5473814 35.54691101 117.0205905 32.8125 116.5625 C31.39646225 116.31781832 29.98053477 116.0724979 28.56469727 115.82666016 C27.34709717 115.6157373 26.12949707 115.40481445 24.875 115.1875 C23.9338078 102.31958821 23.75209293 89.52361947 23.8125 76.625 C23.81753219 74.72721474 23.82209202 72.82942817 23.82617188 70.93164062 C23.83702486 66.35022706 23.85419156 61.76887871 23.875 57.1875 C24.205 57.1875 24.535 57.1875 24.875 57.1875 C25.45211642 65.39876507 25.93574529 73.59776226 26.12109375 81.828125 C26.1460643 82.89202454 26.1460643 82.89202454 26.17153931 83.97741699 C26.23771479 86.87336456 26.30071117 89.76927079 26.35180664 92.66552734 C26.39143004 94.82417243 26.44284664 96.98227892 26.49609375 99.140625 C26.5211499 100.40036133 26.54620605 101.66009766 26.57202148 102.95800781 C26.98587316 107.36931321 28.44798861 109.54698292 30.875 113.1875 C33.20461443 113.54590222 35.53865343 113.87598712 37.875 114.1875 C41.3125 115.75 41.3125 115.75 43.875 117.1875 C43.875 118.5075 43.875 119.8275 43.875 121.1875 C45.133125 121.22875 46.39125 121.27 47.6875 121.3125 C49.89453125 121.5859375 49.89453125 121.5859375 51.875 122.1875 C54.45791674 125.73901051 55.48284959 128.81098295 54.875 133.1875 C54.215 133.8475 53.555 134.5075 52.875 135.1875 C52.545 136.1775 52.215 137.1675 51.875 138.1875 C50.555 138.1875 49.235 138.1875 47.875 138.1875 C47.875 136.8675 47.875 135.5475 47.875 134.1875 C46.6259211 134.21295395 46.6259211 134.21295395 45.35160828 134.23892212 C37.50900378 134.39692496 29.66628878 134.54512376 21.82329082 134.68227577 C17.79100213 134.75313606 13.75885846 134.8278032 9.72680664 134.91113281 C5.8366045 134.99139139 1.94633876 135.06169913 -1.94417381 135.12507248 C-3.42941109 135.15102213 -4.91458988 135.18057404 -6.399683 135.21376419 C-8.47776059 135.2595951 -10.5556762 135.29268266 -12.6340332 135.32275391 C-13.81761917 135.34496002 -15.00120514 135.36716614 -16.22065735 135.39004517 C-19.125 135.1875 -19.125 135.1875 -22.125 133.1875 C-21.465 129.8875 -20.805 126.5875 -20.125 123.1875 C-15.67 122.1975 -15.67 122.1975 -11.125 121.1875 C-11.125 119.2075 -11.125 117.2275 -11.125 115.1875 C-10.444375 115.06375 -9.76375 114.94 -9.0625 114.8125 C-6.00768642 114.20603177 -6.00768642 114.20603177 -2.625 113.125 C0.43455656 112.30547592 2.74434356 111.99776325 5.875 112.1875 C6.87675651 106.29812482 7.07218725 100.53339617 7.15625 94.56640625 C7.17465942 93.5488475 7.19306885 92.53128876 7.21203613 91.4828949 C7.27047447 88.23865242 7.32332981 84.99435684 7.375 81.75 C7.57243645 69.53569575 7.78071549 57.36373527 8.63427734 45.17553711 C9.12644093 37.021894 9.25182045 28.85285293 9.4375 20.6875 C9.48084002 18.88150368 9.52445829 17.07551402 9.56835938 15.26953125 C9.67376813 10.90892392 9.77545569 6.54824498 9.875 2.1875 C9.23699463 2.21779297 8.59898926 2.24808594 7.94165039 2.27929688 C-5.08953332 2.8877386 -18.0791178 3.34702845 -31.125 3.1875 C-31.125 2.8575 -31.125 2.5275 -31.125 2.1875 C-20.7350076 0.84375964 -10.48458918 -0.00689662 0 0 Z " fill="#392F21" transform="translate(176.125,133.8125)"/>
  <path d="M0 0 C4.06655581 0.36914123 8.12597825 0.76904018 12.1875 1.1875 C13.91323242 1.33928711 13.91323242 1.33928711 15.67382812 1.49414062 C24.23396942 2.41218476 24.23396942 2.41218476 28.0390625 5.33203125 C28.68617188 6.21246094 29.33328125 7.09289062 30 8 C31.07314453 9.12921875 31.07314453 9.12921875 32.16796875 10.28125 C32.83441406 11.0134375 33.50085938 11.745625 34.1875 12.5 C34.86167969 13.2321875 35.53585938 13.964375 36.23046875 14.71875 C39.59774165 19.05978173 39.59774165 19.05978173 40 22 C38.36287735 25.24124711 36.12872142 27.97868037 33.875 30.8125 C33.23643066 31.64475098 32.59786133 32.47700195 31.93994141 33.33447266 C30.6192219 35.054974 29.29149515 36.77011762 27.95703125 38.47998047 C25.03981253 42.23640907 22.21190275 46.05782274 19.375 49.875 C17.99594933 51.71978471 16.61355535 53.56139518 15.21777344 55.39355469 C14.07778389 56.89739014 12.96365661 58.42073258 11.8515625 59.9453125 C10.93503906 60.96238281 10.93503906 60.96238281 10 62 C9.01 62 8.02 62 7 62 C4.73075004 55.19225013 6.24722269 49.16756689 8.3125 42.5625 C10.91242648 33.79893084 12.595032 25.02377819 14 16 C13.31035156 16.0721875 12.62070313 16.144375 11.91015625 16.21875 C5.90411341 16.81193942 0.0343 17.09892295 -6 17 C-6 16.67 -6 16.34 -6 16 C-4.02 16 -2.04 16 0 16 C0 10.72 0 5.44 0 0 Z " fill="#17356B" transform="translate(192,64)"/>
  <path d="M0 0 C0.99 0.66 1.98 1.32 3 2 C3 1.34 3 0.68 3 0 C6 1 6 1 9 5 C3.06 5.495 3.06 5.495 -3 6 C-3 5.01 -3 4.02 -3 3 C-3.66 3 -4.32 3 -5 3 C-5 2.34 -5 1.68 -5 1 C-2 0 -2 0 0 0 Z " fill="#B28F4D" transform="translate(227,45)"/>
  <path d="M0 0 C0.33 0 0.66 0 1 0 C1 20.46 1 40.92 1 62 C-6.26 62 -13.52 62 -21 62 C-20.24888888 57.49333325 -19.40694467 53.90935218 -17.92578125 49.66796875 C-17.50828613 48.46503174 -17.09079102 47.26209473 -16.66064453 46.02270508 C-16.2114376 44.74424203 -15.7620528 43.46584147 -15.3125 42.1875 C-14.85493842 40.87602336 -14.39774621 39.56441781 -13.94091797 38.25268555 C-13.04081255 35.67101626 -12.13780751 33.09039294 -11.23193359 30.51074219 C-10.19775643 27.56356271 -9.1692447 24.61454054 -8.14453125 21.6640625 C-5.60335492 14.37123991 -2.97760611 7.12873932 0 0 Z " fill="#081528" transform="translate(127,146)"/>
  <path d="M0 0 C0.495 0.99 0.495 0.99 1 2 C-0.65 2.33 -2.3 2.66 -4 3 C-4 4.32 -4 5.64 -4 7 C-72.4704313 43 -72.4704313 43 -107 43 C-107 60.82 -107 78.64 -107 97 C-107.33 97 -107.66 97 -108 97 C-108.00808685 96.34489441 -108.01617371 95.68978882 -108.02450562 95.01483154 C-108.11050724 88.20158343 -108.21000919 81.38862772 -108.31738281 74.57568359 C-108.35568566 72.03243924 -108.3905362 69.48914048 -108.421875 66.94580078 C-108.46749662 63.29179423 -108.52549678 59.63816273 -108.5859375 55.984375 C-108.59748871 54.84570984 -108.60903992 53.70704468 -108.62094116 52.53387451 C-108.64081085 51.47307678 -108.66068054 50.41227905 -108.68115234 49.31933594 C-108.69447601 48.38667908 -108.70779968 47.45402222 -108.7215271 46.49310303 C-108.89575918 43.63321166 -108.89575918 43.63321166 -111 40 C-111 56.83 -111 73.66 -111 91 C-111.33 91 -111.66 91 -112 91 C-112 73.84 -112 56.68 -112 39 C-106.39 38.34 -100.78 37.68 -95 37 C-93.02 36.34 -91.04 35.68 -89 35 C-87.62145919 34.64187652 -86.23741289 34.30396252 -84.84765625 33.9921875 C-57.19166778 27.56788326 -32.06747163 16.56441421 -7.17797852 3.09399414 C-4.83256977 1.91590014 -2.44841672 0.94269011 0 0 Z " fill="#E4DED2" transform="translate(186,37)"/>
  <path d="M0 0 C0.33 0.99 0.66 1.98 1 3 C3.31 3 5.62 3 8 3 C8.33 2.34 8.66 1.68 9 1 C9 1.66 9 2.32 9 3 C9.63164062 3.03963867 10.26328125 3.07927734 10.9140625 3.12011719 C47.520824 5.50694133 47.520824 5.50694133 61 10 C63.06145107 10.068991 65.12501401 10.08467727 67.1875 10.0625 C68.27417969 10.05347656 69.36085938 10.04445312 70.48046875 10.03515625 C71.31191406 10.02355469 72.14335937 10.01195312 73 10 C73 8.68 73 7.36 73 6 C74.32 6 75.64 6 77 6 C77.375 8.25 77.375 8.25 77 11 C72.02702703 15 72.02702703 15 69 15 C69 15.66 69 16.32 69 17 C68.01 17 67.02 17 66 17 C66 16.01 66 15.02 66 14 C64.8140625 13.95101562 63.628125 13.90203125 62.40625 13.8515625 C54.56676041 13.49852048 46.83315103 13.05895527 39.0625 11.9375 C29.68352821 10.64944182 20.46338845 10.86856405 11 11 C10.67 20.24 10.34 29.48 10 39 C9.67 39 9.34 39 9 39 C8.97518656 34.96151684 8.9570864 30.92306353 8.94506836 26.88452148 C8.94005546 25.51211778 8.93324342 24.13971938 8.92456055 22.76733398 C8.91236143 20.78892349 8.90727752 18.8104732 8.90234375 16.83203125 C8.89710693 15.64327393 8.89187012 14.4545166 8.88647461 13.22973633 C9 10 9 10 10 5 C0.1 5 -9.8 5 -20 5 C-20 4.67 -20 4.34 -20 4 C-15.48184719 3.11722245 -11.22487306 2.89410497 -6.625 2.9375 C-4.75714844 2.95103516 -4.75714844 2.95103516 -2.8515625 2.96484375 C-1.44003906 2.98224609 -1.44003906 2.98224609 0 3 C0 2.01 0 1.02 0 0 Z " fill="#C9A363" transform="translate(188,124)"/>
  <path d="M0 0 C0 0.66 0 1.32 0 2 C1.03125 1.62875 2.0625 1.2575 3.125 0.875 C9.4196567 -0.76115626 15.72291257 0.85390258 22 2 C17.86466769 6.13533231 10.3989658 5.06388591 4.875 5.09765625 C2.24998213 5.09106073 -0.37502704 5.07921139 -3 5.0625 C-4.36067544 5.05747487 -5.72135267 5.05291376 -7.08203125 5.04882812 C-10.38806725 5.03710459 -13.69401001 5.02069427 -17 5 C-16.67 3.68 -16.34 2.36 -16 1 C-10.61509359 0.08342019 -5.45769811 -0.11138159 0 0 Z " fill="#B08A4C" transform="translate(185,249)"/>
  <path d="M0 0 C0.66 0 1.32 0 2 0 C0.68775452 3.93673644 -0.91910327 6.22719294 -4 9 C-2.79618552 11.49361571 -1.54571278 13.68143083 0 16 C-2 18 -2 18 -4.625 18.125 C-5.40875 18.08375 -6.1925 18.0425 -7 18 C-6.98839844 17.30132812 -6.97679687 16.60265625 -6.96484375 15.8828125 C-6.95582031 14.97273438 -6.94679687 14.06265625 -6.9375 13.125 C-6.92589844 12.22007813 -6.91429687 11.31515625 -6.90234375 10.3828125 C-6.83750743 7.9831415 -6.83750743 7.9831415 -8 6 C-7.34 5.01 -6.68 4.02 -6 3 C-5.01 3 -4.02 3 -3 3 C-1.97980427 2.0206121 -0.97850195 1.02104551 0 0 Z " fill="#0D1C35" transform="translate(156,75)"/>
  <path d="M0 0 C2.47485352 1.61914062 2.47485352 1.61914062 5.06640625 3.65625 C10.74564696 7.92066899 16.61974713 11.2781799 22.9375 14.5 C24.57537476 15.33954224 24.57537476 15.33954224 26.24633789 16.19604492 C52.84806412 29.63175013 82.58002851 39.17770818 112 44 C112.04675453 52.70286236 112.08208474 61.40568016 112.10362434 70.10864162 C112.1139727 74.15165647 112.12796382 78.19458413 112.15087891 82.23754883 C112.17293225 86.15388381 112.18463547 90.07013602 112.18975449 93.9865284 C112.19339296 95.46572227 112.20049357 96.94491266 112.21146011 98.42407036 C112.3087333 112.11392913 111.38949263 125.68413608 108 139 C107.67 139 107.34 139 107 139 C106.97207372 136.22909271 106.95273716 133.45848683 106.9375 130.6875 C106.92912109 129.94048828 106.92074219 129.19347656 106.91210938 128.42382812 C106.88933523 122.79861338 107.14076553 117.20789788 107.46875 111.59375 C108.20698535 98.67683669 108.35243325 85.74660991 108.5625 72.8125 C108.60581416 70.29752076 108.64943193 67.78254673 108.69335938 65.26757812 C108.79906565 59.17844091 108.90105264 53.0892506 109 47 C107.75057617 47.01659668 106.50115234 47.03319336 105.21386719 47.05029297 C101.26603128 47.10273392 98.02668792 46.33956865 94.25 45.125 C89.90064954 43.79807952 85.75552786 42.72573705 81.25 42.125 C75.83460122 41.3148797 70.80430334 39.78998077 65.625 38.0625 C64.86348633 37.80936035 64.10197266 37.5562207 63.31738281 37.29541016 C59.01775277 35.82019553 55.06240453 34.05310202 51 32 C48.67471348 31.14447005 46.3404265 30.31319904 44 29.5 C29.38806349 24.177737 15.08122885 17.18610593 2.56616211 7.90917969 C-0.50980242 5.59672743 -0.50980242 5.59672743 -4.203125 5.10546875 C-6.96654909 6.48117335 -9.44325654 8.27697723 -12 10 C-12.66 10 -13.32 10 -14 10 C-14 9.01 -14 8.02 -14 7 C-12.35 6.67 -10.7 6.34 -9 6 C-9.99 5.34 -10.98 4.68 -12 4 C-10.95245905 3.12755235 -9.88613078 2.27763326 -8.8125 1.4375 C-8.22082031 0.96183594 -7.62914062 0.48617187 -7.01953125 -0.00390625 C-4.23694171 -1.37636338 -2.95527213 -0.86861401 0 0 Z " fill="#E5DFD3" transform="translate(196,33)"/>
  <path d="M0 0 C0.55429688 0.42474609 1.10859375 0.84949219 1.6796875 1.28710938 C3.04089411 2.33148341 4.39605833 3.38372464 5.75 4.4375 C4.76 4.9325 4.76 4.9325 3.75 5.4375 C1.25390625 4.07421875 1.25390625 4.07421875 -1.6875 2.125 C-2.65558594 1.48949219 -3.62367188 0.85398437 -4.62109375 0.19921875 C-5.48863281 -0.38214844 -6.35617188 -0.96351562 -7.25 -1.5625 C-8.24 -2.2225 -9.23 -2.8825 -10.25 -3.5625 C-8.2558322 0.56041134 -6.06873008 4.44074658 -3.625 8.3125 C-0.45808236 13.39975872 2.5974176 18.54245941 5.5625 23.75 C5.9352002 24.39501465 6.30790039 25.0400293 6.69189453 25.70458984 C9.20408387 30.1541359 11.05375943 34.61632412 12.75 39.4375 C12.09 39.4375 11.43 39.4375 10.75 39.4375 C9.37084324 37.78251189 8.07349612 36.05919626 6.8125 34.3125 C6.00286829 33.20458293 5.19160086 32.09785979 4.37890625 30.9921875 C3.95109863 30.40920898 3.52329102 29.82623047 3.08251953 29.22558594 C0.86453551 26.24930983 -1.44371082 23.34553532 -3.75 20.4375 C-8.06386398 14.98757379 -12.25455696 9.46072133 -16.375 3.86328125 C-18.13338819 1.47193481 -18.13338819 1.47193481 -20 -0.26953125 C-21.25 -1.5625 -21.25 -1.5625 -21.25 -3.5625 C-19.50215171 -3.92713732 -17.75159498 -4.2788078 -16 -4.625 C-14.53820312 -4.92083984 -14.53820312 -4.92083984 -13.046875 -5.22265625 C-7.33161168 -5.91710864 -4.37947367 -3.42080898 0 0 Z " fill="#346DB3" transform="translate(172.25,87.5625)"/>
  <path d="M0 0 C9.57 0 19.14 0 29 0 C27.91866947 15.13862735 27.91866947 15.13862735 25.1171875 23.41015625 C23.51303235 28.56476668 22.41963778 33.80586976 21.30737305 39.08496094 C20.08992886 44.82014228 20.08992886 44.82014228 19 47 C16.69 47 14.38 47 12 47 C9.87632043 42.00310689 9.68360985 38.18131165 11 33 C11.495 32.0925 11.99 31.185 12.5 30.25 C14.44814291 26.02902371 14.50233514 22.21583485 14.69140625 17.609375 C15 15 15 15 17 13 C17.6425235 10.93125966 17.6425235 10.93125966 18 9 C17.34 9 16.68 9 16 9 C14.875 4.25 14.875 4.25 16 2 C14.72799029 3.10281127 13.45744147 4.20730769 12.1875 5.3125 C11.47980469 5.92738281 10.77210938 6.54226562 10.04296875 7.17578125 C8.01755954 8.93276741 8.01755954 8.93276741 6.36328125 10.73046875 C5 12 5 12 3 12 C2.01 8.04 1.02 4.08 0 0 Z " fill="#3D80C0" transform="translate(177,80)"/>
  <path d="M0 0 C9.57 0 19.14 0 29 0 C28 10 28 10 26 13 C22.7 9.7 19.4 6.4 16 3 C12.47304642 4.76347679 10.9551471 5.86299231 8.375 8.625 C6.5859375 10.5390625 6.5859375 10.5390625 5 12 C4.34 12 3.68 12 3 12 C2.01 8.04 1.02 4.08 0 0 Z " fill="#9EC9E6" transform="translate(177,80)"/>
  <path d="M0 0 C3.63 0 7.26 0 11 0 C10.25 9.625 10.25 9.625 8 13 C6.46452525 11.59921602 4.94694852 10.17879097 3.4375 8.75 C2.59058594 7.96109375 1.74367187 7.1721875 0.87109375 6.359375 C0.25363281 5.58078125 -0.36382812 4.8021875 -1 4 C-0.67 2.68 -0.34 1.36 0 0 Z " fill="#93C5E6" transform="translate(195,80)"/>
  <path d="M0 0 C1.65 0 3.3 0 5 0 C5.33 0.66 5.66 1.32 6 2 C7.32 2.66 8.64 3.32 10 4 C6.7 4 3.4 4 0 4 C0 2.68 0 1.36 0 0 Z " fill="#CEA45D" transform="translate(199,129)"/>
  <path d="M0 0 C0 4.07587476 -1.25991672 4.98590839 -4 8 C-10.93150685 14.46575342 -10.93150685 14.46575342 -14 16 C-13.51106471 11.39240646 -11.78017022 9.13118447 -8.6875 5.75 C-7.90761719 4.87859375 -7.12773437 4.0071875 -6.32421875 3.109375 C-4.0756474 1.06865479 -2.95917105 0.35212104 0 0 Z " fill="#E9E3DA" transform="translate(260,269)"/>
  <path d="M0 0 C0 0.66 0 1.32 0 2 C-2.5 3.5 -2.5 3.5 -5 5 C-5 5.66 -5 6.32 -5 7 C-5.969375 7.12375 -6.93875 7.2475 -7.9375 7.375 C-9.4534375 7.684375 -9.4534375 7.684375 -11 8 C-11.33 8.66 -11.66 9.32 -12 10 C-14.5625 10.625 -14.5625 10.625 -17 11 C-17 10.01 -17 9.02 -17 8 C-14.15307341 5.37570037 -10.88433024 3.88744201 -7.375 2.3125 C-6.41335937 1.87550781 -5.45171875 1.43851563 -4.4609375 0.98828125 C-2 0 -2 0 0 0 Z " fill="#252C3B" transform="translate(167,52)"/>
  <path d="M0 0 C16.83 0 33.66 0 51 0 C48.75238994 4.49522012 47.33705459 5.62689466 43 8 C39.375 8.9375 39.375 8.9375 36 9 C33.5625 7.5625 33.5625 7.5625 32 6 C32.33 5.34 32.66 4.68 33 4 C30.0780231 2.53901155 27.50106525 2.88865099 24.2421875 2.90234375 C23.57913605 2.9037587 22.91608459 2.90517365 22.23294067 2.90663147 C20.11358137 2.91223246 17.99432741 2.924785 15.875 2.9375 C14.43880361 2.94251488 13.00260556 2.94707781 11.56640625 2.95117188 C8.04423655 2.96220218 4.52212855 2.97946741 1 3 C0.67 2.01 0.34 1.02 0 0 Z " fill="#B79152" transform="translate(230,208)"/>
  <path d="M0 0 C0 0.33 0 0.66 0 1 C-0.763125 1.020625 -1.52625 1.04125 -2.3125 1.0625 C-5.241435 1.76864682 -5.241435 1.76864682 -6.6496582 4.65454102 C-8.99487942 10.62618048 -8.36723351 17.15672524 -8.29296875 23.46484375 C-8.28736563 24.86731002 -8.28309892 26.2697822 -8.28010559 27.67225647 C-8.26871302 31.3433587 -8.23929511 35.01409846 -8.20599365 38.68505859 C-8.17517131 42.43907774 -8.16157441 46.19315611 -8.14648438 49.94726562 C-8.11441908 57.29834139 -8.06329171 64.64911969 -8 72 C-8.33 72 -8.66 72 -9 72 C-10.28468684 57.18047825 -10.11318392 42.36281926 -10.0625 27.5 C-10.05747411 24.92317795 -10.05291313 22.34635496 -10.04882812 19.76953125 C-10.03791079 13.51299978 -10.02125931 7.25650444 -10 1 C-6.52674819 -0.1577506 -3.63932552 -0.06866652 0 0 Z " fill="#080D17" transform="translate(90,80)"/>
  <path d="M0 0 C0.33 0 0.66 0 1 0 C1 2.31 1 4.62 1 7 C0.34 7 -0.32 7 -1 7 C-1.0825 7.969375 -1.165 8.93875 -1.25 9.9375 C-1.91494242 14.68846541 -3.96713347 18.70125062 -6 23 C-6.67834587 24.66194738 -7.35199575 26.32598903 -8 28 C-9 26 -9 26 -8.14453125 22.91015625 C-7.7084703 21.62487965 -7.26392662 20.34246059 -6.8125 19.0625 C-6.58344971 18.39532959 -6.35439941 17.72815918 -6.1184082 17.04077148 C-4.14930392 11.33548806 -2.10501863 5.65650258 0 0 Z " fill="#1D1717" transform="translate(247,164)"/>
  <path d="M0 0 C0.66 0 1.32 0 2 0 C2 7.92 2 15.84 2 24 C2.66 23.34 3.32 22.68 4 22 C4.02505615 22.66942627 4.0501123 23.33885254 4.07592773 24.02856445 C4.19347076 27.12333094 4.31546486 30.21790752 4.4375 33.3125 C4.47681641 34.36501953 4.51613281 35.41753906 4.55664062 36.50195312 C4.83098364 43.36052848 5.30680652 50.17098103 6 57 C6.33 57 6.66 57 7 57 C7.0292483 60.20831391 7.04688189 63.41659307 7.0625 66.625 C7.07087891 67.52863281 7.07925781 68.43226563 7.08789062 69.36328125 C7.10491895 74.02904289 6.96829423 78.41013285 6 83 C5.34 82.34 4.68 81.68 4 81 C2.515 81.495 2.515 81.495 1 82 C0.21739956 71.32322474 -0.13910939 60.7069561 -0.09765625 50 C-0.09578365 48.54313201 -0.09436375 47.08626338 -0.09336853 45.62939453 C-0.08960946 41.85500244 -0.07983849 38.08065085 -0.06866455 34.30627441 C-0.05830548 30.43075101 -0.05384035 26.55522085 -0.04882812 22.6796875 C-0.03820794 15.11977351 -0.02121457 7.5598925 0 0 Z " fill="#B49055" transform="translate(68,71)"/>
  <path d="M0 0 C0.33 0.66 0.66 1.32 1 2 C-4.324335 4.32086397 -8.43842552 3.91457003 -14 3 C-9.25294723 -0.16470185 -5.68228705 -0.10927475 0 0 Z " fill="#D2AC69" transform="translate(142,134)"/>
  <path d="M0 0 C2.85845276 1.04315628 4.74773375 2.63703465 7.12109375 4.546875 C12.8791029 8.97392282 18.87869042 12.85882279 25.05859375 16.671875 C25.962146 17.23100586 26.86569824 17.79013672 27.79663086 18.36621094 C35.48091492 23.65245411 35.48091492 23.65245411 44.18359375 25.734375 C47.67783102 24.64242585 50.16098372 22.83385133 53.18359375 20.796875 C54.50359375 20.796875 55.82359375 20.796875 57.18359375 20.796875 C57.0390625 22.5546875 57.0390625 22.5546875 56.18359375 24.796875 C53.671875 26.7890625 53.671875 26.7890625 50.49609375 28.671875 C49.46097656 29.30867188 48.42585938 29.94546875 47.359375 30.6015625 C44.18359375 31.796875 44.18359375 31.796875 41.08984375 31.14453125 C30.80804085 26.37675974 21.45189652 20.19995316 12.01269531 13.97119141 C10.43345634 12.95729132 8.80794221 12.01614808 7.17578125 11.08984375 C6.51835937 10.66316406 5.8609375 10.23648437 5.18359375 9.796875 C5.18359375 9.136875 5.18359375 8.476875 5.18359375 7.796875 C4.62671875 7.57 4.06984375 7.343125 3.49609375 7.109375 C0.55112691 5.43790734 -1.49797169 3.24411148 -3.81640625 0.796875 C-1.81640625 -0.203125 -1.81640625 -0.203125 0 0 Z " fill="#E2DBD0" transform="translate(149.81640625,290.203125)"/>
  <path d="M0 0 C0.66 0 1.32 0 2 0 C2.33 0.66 2.66 1.32 3 2 C3.66 1.34 4.32 0.68 5 0 C3.63125844 6.95776959 1.5466871 13.38603107 -1 20 C-1.33 20 -1.66 20 -2 20 C-2.2513089 14.47120419 -2.2513089 14.47120419 -1 12.125 C0.22905052 9.51326765 0.20054197 7.62059491 0.125 4.75 C0.10695312 3.85796875 0.08890625 2.9659375 0.0703125 2.046875 C0.04710937 1.37140625 0.02390625 0.6959375 0 0 Z " fill="#1B1B1A" transform="translate(242,158)"/>
  <path d="M0 0 C0 0.66 0 1.32 0 2 C-2.64738916 3.4606285 -3.89448334 4 -7 4 C-7 2.68 -7 1.36 -7 0 C-4.3333581 -1.33332095 -2.83319697 -0.67102033 0 0 Z " fill="#EFEAE2" transform="translate(171,48)"/>
  <path d="M0 0 C0.33 0 0.66 0 1 0 C1.02918634 4.35415244 1.04686145 8.70827948 1.0625 13.0625 C1.07087891 14.29162109 1.07925781 15.52074219 1.08789062 16.78710938 C1.12119089 29.14150616 1.12119089 29.14150616 0 34 C-0.99 34.495 -0.99 34.495 -2 35 C-2.12954409 27.42976738 -1.61778251 19.98029056 -1 12.4375 C-0.90460938 11.23802734 -0.80921875 10.03855469 -0.7109375 8.80273438 C-0.47711179 5.86822169 -0.24005813 2.93400829 0 0 Z " fill="#302318" transform="translate(315,138)"/>
  <path d="M0 0 C0.66 0.33 1.32 0.66 2 1 C1.93976735 2.60520004 1.85091401 4.20934327 1.75 5.8125 C1.70359375 6.70582031 1.6571875 7.59914063 1.609375 8.51953125 C1 11 1 11 -3 14 C-2.01 9.38 -1.02 4.76 0 0 Z " fill="#1C437F" transform="translate(201,103)"/>
  <path d="M0 0 C0.66 0 1.32 0 2 0 C1.2236337 1.41433206 1.42826476 2.83167618 1.625 4.25 C1.74101563 5.03890625 1.85703125 5.8278125 1.9765625 6.640625 C2.00319395 9.32152459 1.36592084 10.72694089 0 13 C-0.33 12.01 -0.66 11.02 -1 10 C-1.66 9.67 -2.32 9.34 -3 9 C-2.44271087 5.65626525 -1.64826111 2.96687001 0 0 Z " fill="#141517" transform="translate(111,192)"/>
  <path d="M0 0 C0.33 0 0.66 0 1 0 C1.66 16.17 2.32 32.34 3 49 C1.02 49.495 1.02 49.495 -1 50 C-1.84321004 39.73090627 -2.13062168 29.47170001 -2.17724609 19.17169189 C-2.18407806 17.808023 -2.19432808 16.44436691 -2.20800781 15.08074951 C-2.22593389 13.13983885 -2.22848079 11.19880493 -2.23046875 9.2578125 C-2.23457764 8.1248877 -2.23868652 6.99196289 -2.24291992 5.82470703 C-2 3 -2 3 0 0 Z " fill="#B48645" transform="translate(71,93)"/>
</svg>